<svg width="12" height="11" viewBox="0 0 12 11" fill="none" xmlns="http://www.w3.org/2000/svg">
<path d="M5.52368 9.625C7.80186 9.625 9.64868 7.77817 9.64868 5.5C9.64868 3.22183 7.80186 1.375 5.52368 1.375C3.24551 1.375 1.39868 3.22183 1.39868 5.5C1.39868 7.77817 3.24551 9.625 5.52368 9.625Z" stroke="white" stroke-linecap="round" stroke-linejoin="round"/>
<path d="M6.89872 6.53152C6.68224 6.82004 6.38048 7.03314 6.03616 7.14065C5.69185 7.24815 5.32244 7.2446 4.98025 7.1305C4.63807 7.0164 4.34045 6.79754 4.12956 6.50491C3.91866 6.21228 3.80518 5.86072 3.80518 5.50001C3.80517 5.1393 3.91865 4.78774 4.12955 4.49511C4.34044 4.20248 4.63805 3.98361 4.98023 3.86951C5.32242 3.75541 5.69183 3.75185 6.03614 3.85935C6.38046 3.96684 6.68223 4.17994 6.89871 4.46846" stroke="white" stroke-linecap="round" stroke-linejoin="round"/>
</svg>
